<?xml version="1.0" standalone="no"?>
<!DOCTYPE svg PUBLIC "-//W3C//DTD SVG 20010904//EN"
 "http://www.w3.org/TR/2001/REC-SVG-20010904/DTD/svg10.dtd">
<svg version="1.0" xmlns="http://www.w3.org/2000/svg"
 width="227.000000pt" height="122.000000pt" viewBox="0 0 227.000000 122.000000"
 preserveAspectRatio="xMidYMid meet">

<g transform="translate(0.000000,122.000000) scale(0.100000,-0.100000)"
fill="#000000" stroke="none">
<path d="M387 1067 c-2 -6 -1 -19 3 -27 5 -8 17 -55 29 -103 11 -49 25 -96 30
-105 10 -19 66 -28 76 -12 7 11 -52 229 -66 244 -13 15 -67 17 -72 3z m66
-102 c-3 -9 -8 -14 -10 -11 -3 3 -2 9 2 15 9 16 15 13 8 -4z"/>
<path d="M915 1038 c-4 -24 -5 -61 -2 -83 3 -37 4 -36 5 11 2 57 28 100 65
107 12 2 3 5 -20 6 l-42 1 -6 -42z"/>
<path d="M1119 1067 c-11 -9 -16 -28 -16 -64 0 -29 3 -50 7 -48 4 3 11 -2 14
-11 8 -22 8 -24 -8 -24 -8 0 -16 -15 -20 -37 -12 -75 -15 -72 79 -71 l86 2 -3
50 c-3 44 -6 51 -26 54 -26 4 -20 22 9 22 16 0 19 7 19 50 0 65 -23 90 -82 90
-24 0 -50 -6 -59 -13z m88 -112 c0 -8 -4 -12 -9 -9 -5 3 -6 10 -3 15 9 13 12
11 12 -6z"/>
<path d="M1377 1065 c22 -9 34 -23 39 -42 11 -50 12 -49 12 5 l-1 52 -41 0
-41 -1 32 -14z"/>
<path d="M1631 1043 c1 -37 1 -38 11 -11 6 19 20 31 41 37 l32 9 -42 1 -43 1
1 -37z"/>
<path d="M1820 1061 c-16 -31 -13 -111 5 -111 8 0 15 -7 15 -15 0 -8 -6 -15
-14 -15 -18 0 -26 -22 -26 -70 l0 -38 83 1 82 2 0 50 c0 44 -3 50 -25 56 l-25
6 28 11 c24 10 27 17 27 57 0 62 -24 85 -90 85 -38 0 -52 -4 -60 -19z m125
-51 c3 -5 1 -10 -4 -10 -6 0 -11 5 -11 10 0 6 2 10 4 10 3 0 8 -4 11 -10z"/>
<path d="M2098 1065 c12 -9 26 -30 31 -48 9 -31 9 -31 10 16 1 47 1 47 -31 47
-32 0 -32 0 -10 -15z"/>
<path d="M1622 920 c0 -14 2 -19 5 -12 2 6 2 18 0 25 -3 6 -5 1 -5 -13z"/>
<path d="M358 585 c-2 -41 0 -75 5 -75 4 0 7 34 7 75 0 41 -2 75 -4 75 -3 0
-6 -34 -8 -75z"/>
<path d="M571 583 c2 -79 6 -70 11 25 2 28 0 52 -4 52 -5 0 -7 -35 -7 -77z"/>
<path d="M1560 587 c0 -42 3 -77 8 -77 9 0 8 137 -1 146 -4 4 -7 -27 -7 -69z"/>
<path d="M1770 653 c0 -12 83 -134 87 -129 5 5 -76 136 -83 136 -2 0 -4 -3 -4
-7z"/>
<path d="M425 624 c0 -13 3 -24 8 -24 4 0 7 9 7 19 0 11 -3 22 -7 24 -5 3 -8
-6 -8 -19z"/>
<path d="M770 631 c-12 -24 -13 -88 -1 -95 5 -4 7 11 4 33 -3 21 0 48 6 60 7
11 9 21 7 21 -3 0 -10 -9 -16 -19z"/>
<path d="M861 621 c9 -24 9 -43 1 -70 -10 -32 -10 -34 3 -17 19 25 19 77 0
102 -13 17 -14 16 -4 -15z"/>
<path d="M1340 631 c-15 -29 -12 -74 6 -97 15 -18 15 -18 5 3 -14 28 -14 69
-1 94 6 10 8 19 6 19 -3 0 -10 -9 -16 -19z"/>
<path d="M1425 640 c3 -5 8 -10 11 -10 2 0 4 5 4 10 0 6 -5 10 -11 10 -5 0 -7
-4 -4 -10z"/>
<path d="M990 614 c-13 -32 -12 -44 3 -71 10 -19 12 -14 12 38 0 32 -1 59 -3
59 -1 0 -7 -12 -12 -26z"/>
<path d="M428 546 c-5 -41 -3 -44 12 -16 7 13 7 26 2 37 -7 12 -10 8 -14 -21z"/>
<path d="M1080 545 c0 -19 2 -35 4 -35 2 0 6 16 8 35 2 19 0 35 -4 35 -4 0 -8
-16 -8 -35z"/>
<path d="M1423 555 c0 -14 3 -28 8 -31 5 -3 9 9 9 25 0 17 -4 31 -9 31 -5 0
-8 -11 -8 -25z"/>
<path d="M573 333 c8 -39 -2 -51 -43 -56 -19 -2 19 -4 85 -4 66 0 109 3 96 6
-13 4 -30 21 -40 41 -14 31 -21 35 -60 38 -43 3 -44 3 -38 -25z m67 -7 c-7 -7
-13 -7 -20 0 -6 6 -3 10 10 10 13 0 16 -4 10 -10z"/>
<path d="M1084 320 c-5 -32 -11 -40 -33 -43 -14 -2 25 -4 87 -5 l112 0 0 44 0
44 -80 -1 -80 -1 -6 -38z"/>
<path d="M1797 354 c-4 -4 -7 -22 -7 -40 0 -28 -4 -33 -27 -37 -23 -3 -21 -4
10 -6 24 0 37 3 37 12 0 9 2 9 8 -1 8 -12 187 -20 200 -8 3 3 -10 6 -30 6 -33
0 -34 1 -34 38 l1 37 -75 3 c-42 1 -79 0 -83 -4z m40 -49 c0 -8 -4 -12 -9 -9
-5 3 -6 10 -3 15 9 13 12 11 12 -6z"/>
<path d="M191 329 c-2 -22 -31 -46 -61 -52 -14 -2 2 -5 35 -5 33 -1 55 2 48 6
-6 4 -13 21 -16 37 -2 17 -5 23 -6 14z"/>
<path d="M258 273 c6 -2 18 -2 25 0 6 3 1 5 -13 5 -14 0 -19 -2 -12 -5z"/>
<path d="M1273 273 c9 -2 23 -2 30 0 6 3 -1 5 -18 5 -16 0 -22 -2 -12 -5z"/>
<path d="M1125 253 c-11 -3 -24 -8 -28 -13 -9 -8 16 -64 33 -75 5 -3 1 9 -10
28 l-21 35 23 6 c39 10 76 7 92 -9 10 -11 17 -12 22 -4 7 12 -13 29 -36 29 -8
0 -24 2 -35 4 -11 2 -29 2 -40 -1z"/>
<path d="M1831 251 c-14 -4 -26 -12 -29 -19 -3 -9 3 -10 23 -2 31 12 85 13
102 2 16 -10 -36 -92 -59 -92 -11 0 -15 -5 -12 -15 4 -8 9 -15 13 -15 6 0 81
112 81 123 0 7 -68 28 -85 26 -5 -1 -21 -4 -34 -8z"/>
<path d="M1820 190 c6 -11 13 -20 16 -20 2 0 0 9 -6 20 -6 11 -13 20 -16 20
-2 0 0 -9 6 -20z"/>
<path d="M1200 180 c-6 -11 -8 -20 -6 -20 3 0 10 9 16 20 6 11 8 20 6 20 -3 0
-10 -9 -16 -20z"/>
<path d="M1145 132 c3 -8 5 -16 5 -18 0 -11 20 -2 29 14 7 14 5 17 -15 17 -16
0 -22 -4 -19 -13z"/>
</g>
</svg>
